# xmcd
#
# Track frame offsets:
#	150
#	18608
#	35405
#	49974
#	65194
#	81623
#	95336
#	109641
#	120384
#	140516
#	156441
#	175822
#	192952
#	210666
#	229853
#	247669
#	265505
#	278967
#	294815
#	312444
#
# Disc length: 4427 seconds
#
# Revision: 0
# Processed by: cddbd v1.5.2PL0 Copyright (c) Steve Scherf et al.
# Submitted via: EasyCDDAExtractor 16.0.9.1
#
DISCID=20114914
DTITLE=Hott Urban Volume 11 CAN
DYEAR=2016
DGENRE=blues
TTITLE0=Yo Gotti ft. E-40 - Law
TTITLE1=Rae Sremmurd - By Chance
TTITLE2=Fat Joe and Remy Ma ft. French Montana - All The Way Up
TTITLE3=Miguel ft. Travi$ Scott - Waves [Remix]
TTITLE4=Future ft. The Weeknd - Low Life
TTITLE5=Young Dolph - Get Paid
TTITLE6=Alessia Cara - Wild Things
TTITLE7=DLOW - Do It Like Me
TTITLE8=Chris Brown ft. Usher and ZAYN - Back To Sleep [Remix]
TTITLE9=Bas - Housewives
TTITLE10=Pleasure P. ft. Plies - Rock With You
TTITLE11=Desiigner - Panda [Mike Dean Master Radio Mix]
TTITLE12=SWV - MCE (Man Crush Everyday)
TTITLE13=Anderson .Paak ft. SchoolboyQ - Am I Wrong
TTITLE14=Lil Cray - Kyrie Irving
TTITLE15=50 Cent - I'm The Man
TTITLE16=CeeLo Green - Working Class Heroes (Work)
TTITLE17=Ro James - Permission
TTITLE18=Justin Bieber - Love Yourself
TTITLE19=S-8ighty ft. Lil Wayne - Halfway
EXTD=
EXTT0=
EXTT1=
EXTT2=
EXTT3=
EXTT4=
EXTT5=
EXTT6=
EXTT7=
EXTT8=
EXTT9=
EXTT10=
EXTT11=
EXTT12=
EXTT13=
EXTT14=
EXTT15=
EXTT16=
EXTT17=
EXTT18=
EXTT19=
PLAYORDER=
